<svg width="44" height="44" viewBox="0 0 44 44" fill="none" xmlns="http://www.w3.org/2000/svg">
<path opacity="0.4" d="M22 9.71669V39.105C21.6883 39.105 21.3583 39.05 21.1016 38.9034L21.0283 38.8667C17.5083 36.9417 11.3666 34.925 7.38829 34.3934L6.85663 34.32C5.09663 34.1 3.66663 32.45 3.66663 30.69V8.54335C3.66663 6.36169 5.44496 4.71169 7.62663 4.89502C11.4766 5.20669 17.3066 7.15002 20.57 9.18502L21.0283 9.46002C21.3033 9.62502 21.6516 9.71669 22 9.71669Z" fill="white"/>
<path d="M40.3333 8.56168V30.69C40.3333 32.45 38.9033 34.1 37.1433 34.32L36.5383 34.3933C32.5417 34.925 26.3817 36.96 22.8617 38.9033C22.6233 39.05 22.33 39.105 22 39.105V9.71668C22.3483 9.71668 22.6967 9.62501 22.9717 9.46001L23.2833 9.25835C26.5467 7.20501 32.395 5.24335 36.245 4.91335H36.355C38.5367 4.73001 40.3333 6.36168 40.3333 8.56168Z" fill="white"/>
<path d="M14.2084 16.9399H10.0834C9.33171 16.9399 8.70837 16.3166 8.70837 15.5649C8.70837 14.8133 9.33171 14.1899 10.0834 14.1899H14.2084C14.96 14.1899 15.5834 14.8133 15.5834 15.5649C15.5834 16.3166 14.96 16.9399 14.2084 16.9399Z" fill="white"/>
<path d="M15.5834 22.4399H10.0834C9.33171 22.4399 8.70837 21.8166 8.70837 21.0649C8.70837 20.3133 9.33171 19.6899 10.0834 19.6899H15.5834C16.335 19.6899 16.9584 20.3133 16.9584 21.0649C16.9584 21.8166 16.335 22.4399 15.5834 22.4399Z" fill="white"/>
</svg>
