<svg width="41" height="41" viewBox="0 0 41 41" fill="none" xmlns="http://www.w3.org/2000/svg">
<path d="M29.0417 8.47329V20.6366C29.0417 24.0362 26.633 25.3516 23.6775 23.575L21.4225 22.2083C20.91 21.9008 20.09 21.9008 19.5775 22.2083L17.3225 23.575C14.3671 25.3516 11.9584 24.0362 11.9584 20.6366V8.52454C11.9755 5.12496 13.6838 3.41663 17.0834 3.41663H23.9167C27.2992 3.41663 29.0075 5.10788 29.0417 8.47329Z" fill="white"/>
<path opacity="0.4" d="M37.5833 20.3292V25.5055C37.5833 34.1326 34.1666 37.5834 25.625 37.5834H15.375C6.83329 37.5834 3.41663 34.1326 3.41663 25.5055V20.3292C3.41663 13.0859 5.82538 9.49839 11.6508 8.52464H11.9583V20.6367C11.9583 24.0363 14.367 25.3517 17.3225 23.5751L19.5775 22.2084C20.09 21.9009 20.91 21.9009 21.4225 22.2084L23.6775 23.5751C26.6329 25.3517 29.0416 24.0363 29.0416 20.6367V8.47339C35.0891 9.36172 37.5833 12.9663 37.5833 20.3292Z" fill="white"/>
</svg>
