<svg width="46" height="46" viewBox="0 0 46 46" fill="none" xmlns="http://www.w3.org/2000/svg">
<path opacity="0.4" d="M41.8792 21.8691L40.6908 34.8641C40.2883 38.6975 38.7167 42.6075 30.2833 42.6075H15.6783C7.24502 42.6075 5.67335 38.6975 5.29002 34.8833L4.12085 22.4058C4.14002 22.425 4.15918 22.4441 4.19752 22.4633C4.84918 22.885 5.48168 23.3066 6.17168 23.69C6.44002 23.8625 6.72752 24.0158 7.01502 24.1691C9.18085 25.3575 11.5 26.2966 13.8958 26.9483C14.8542 27.2358 15.8317 27.4466 16.8283 27.6191C17.2117 30.6858 19.8375 33.0625 23 33.0625C26.2008 33.0625 28.8458 30.6283 29.1908 27.5041V27.485C30.1683 27.2933 31.1458 27.0441 32.1042 26.7566C34.5 26.0091 36.8192 25.0125 38.985 23.7475C39.1 23.69 39.1958 23.6325 39.2725 23.575C40.1542 23.0958 40.9975 22.54 41.8025 21.965C41.8408 21.9458 41.86 21.9075 41.8792 21.8691Z" fill="white"/>
<path d="M40.4225 13.3783C38.7933 11.5766 36.0908 10.6758 32.1233 10.6758H31.6633V10.5991C31.6633 7.37912 31.6633 3.39246 24.4567 3.39246H21.5433C14.3367 3.39246 14.3367 7.37912 14.3367 10.5991V10.6758H13.8767C9.90916 10.6758 7.18749 11.5766 5.57749 13.3783C3.67999 15.5058 3.73749 18.3233 3.92916 20.2591L3.94832 20.3933L4.12082 22.4058C4.13999 22.425 4.17832 22.4441 4.21666 22.4633C4.86832 22.885 5.50082 23.3066 6.19082 23.69C6.45916 23.8625 6.74666 24.0158 7.03416 24.1691C9.19999 25.3575 11.5192 26.2966 13.8958 26.9483C13.9533 31.9125 18.0167 35.9375 23 35.9375C28.0217 35.9375 32.1042 31.855 32.1042 26.8333V26.7566C34.5192 26.0283 36.8383 25.0125 39.0042 23.7475C39.1192 23.69 39.1958 23.6325 39.2917 23.575C40.1733 23.0958 41.0167 22.54 41.8217 21.965C41.8408 21.9458 41.8792 21.9075 41.8983 21.8691L41.975 21.1791L42.0708 20.2783C42.09 20.1633 42.09 20.0675 42.1092 19.9333C42.2625 18.0166 42.2242 15.3716 40.4225 13.3783ZM17.0775 10.5991C17.0775 7.34079 17.0775 6.11412 21.5433 6.11412H24.4567C28.9225 6.11412 28.9225 7.34079 28.9225 10.5991V10.6758H17.0775V10.5991ZM23 33.0625C19.8375 33.0625 17.2117 30.6858 16.8283 27.6191C16.79 27.37 16.7708 27.1016 16.7708 26.8333C16.7708 23.4025 19.5692 20.6041 23 20.6041C26.4308 20.6041 29.2292 23.4025 29.2292 26.8333C29.2292 27.0633 29.21 27.2741 29.1908 27.485V27.5041C28.8458 30.6283 26.2008 33.0625 23 33.0625Z" fill="white"/>
<path d="M21.9075 30.7242C21.5433 30.7242 21.1791 30.59 20.8916 30.3025L18.9941 28.4242C18.4383 27.8683 18.4383 26.9483 18.9941 26.3925C19.55 25.8367 20.47 25.8367 21.0258 26.3925L21.9458 27.3125L25.0316 24.4758C25.6066 23.9392 26.5266 23.9775 27.0633 24.5525C27.6 25.1275 27.5616 26.0475 26.9866 26.5842L22.9041 30.36C22.5975 30.59 22.2525 30.7242 21.9075 30.7242Z" fill="white"/>
</svg>
