<svg width="66" height="66" viewBox="0 0 66 66" fill="none" xmlns="http://www.w3.org/2000/svg">
<path opacity="0.4" d="M32.4225 39.0775L23.43 48.07C22.44 47.19 21.4775 46.2825 20.5425 45.3475C17.71 42.4875 15.1525 39.49 12.87 36.355C10.615 33.22 8.8 30.085 7.48 26.9775C6.16 23.8425 5.5 20.845 5.5 17.985C5.5 16.115 5.83 14.3275 6.49 12.6775C7.15 11 8.195 9.46 9.6525 8.085C11.4125 6.3525 13.3375 5.5 15.3725 5.5C16.1425 5.5 16.9125 5.665 17.6 5.995C18.315 6.325 18.9475 6.82 19.4425 7.535L25.8225 16.5275C26.3175 17.215 26.675 17.8475 26.9225 18.4525C27.17 19.03 27.3075 19.6075 27.3075 20.13C27.3075 20.79 27.115 21.45 26.73 22.0825C26.3725 22.715 25.85 23.375 25.19 24.035L23.1 26.2075C22.7975 26.51 22.66 26.8675 22.66 27.3075C22.66 27.5275 22.6875 27.72 22.7425 27.94C22.825 28.16 22.9075 28.325 22.9625 28.49C23.4575 29.3975 24.31 30.58 25.52 32.01C26.7575 33.44 28.0775 34.8975 29.5075 36.355C30.4975 37.3175 31.46 38.2525 32.4225 39.0775Z" fill="#2447F9"/>
<path d="M60.4174 50.4075C60.4174 51.1775 60.2799 51.975 60.0049 52.745C59.9224 52.965 59.8399 53.185 59.7299 53.405C59.2624 54.395 58.6574 55.33 57.8599 56.21C56.5124 57.695 55.0274 58.7675 53.3499 59.455C53.3224 59.455 53.2949 59.4825 53.2674 59.4825C51.6449 60.1425 49.8849 60.5 47.9874 60.5C45.1824 60.5 42.1849 59.84 39.0224 58.4925C35.8599 57.145 32.6974 55.33 29.5624 53.0475C28.4899 52.25 27.4174 51.4525 26.3999 50.6L35.3924 41.6075C36.1624 42.185 36.8499 42.625 37.4274 42.9275C37.5649 42.9825 37.7299 43.065 37.9224 43.1475C38.1424 43.23 38.3624 43.2575 38.6099 43.2575C39.0774 43.2575 39.4349 43.0925 39.7374 42.79L41.8274 40.7275C42.5149 40.04 43.1749 39.5175 43.8074 39.1875C44.4399 38.8025 45.0724 38.61 45.7599 38.61C46.2824 38.61 46.8324 38.72 47.4374 38.9675C48.0424 39.215 48.6749 39.5725 49.3624 40.04L58.4649 46.5025C59.1799 46.9975 59.6749 47.575 59.9774 48.2625C60.2524 48.95 60.4174 49.6375 60.4174 50.4075Z" fill="#2447F9"/>
</svg>
