<svg width="102" height="102" viewBox="0 0 102 102" fill="none" xmlns="http://www.w3.org/2000/svg">
<path d="M93.5 47.0475V70.7625C93.5 83.3 83.3 93.5 70.7625 93.5H31.2375C18.7 93.5 8.5 83.3 8.5 70.7625V40.12H92.395C93.0325 42.0325 93.3725 43.9875 93.4575 46.07C93.5 46.3675 93.5 46.75 93.5 47.0475Z" fill="#2447F9"/>
<path opacity="0.4" d="M92.395 40.12H8.5V27.285C8.5 16.915 16.915 8.5 27.285 8.5H37.1875C44.115 8.5 46.2825 10.7525 49.045 14.45L54.995 22.355C56.3125 24.0975 56.4825 24.3525 58.9475 24.3525H70.805C80.8775 24.31 89.4625 30.94 92.395 40.12Z" fill="#2447F9"/>
</svg>
