<svg width="262" height="56" viewBox="0 0 262 56" fill="none" xmlns="http://www.w3.org/2000/svg">
<g clip-path="url(#clip0_6_136)">
<path fill-rule="evenodd" clip-rule="evenodd" d="M17.1432 6.62939C14.3227 6.62939 11.6179 7.72249 9.62351 9.66821L0 19.0569V23.3545C0 26.3907 1.3368 29.1223 3.46751 31.0196C1.3368 32.9169 0 35.6485 0 38.6847V42.9823L9.62351 52.3711C11.6179 54.3168 14.3227 55.4099 17.1432 55.4099C20.2554 55.4099 23.0552 54.1057 25 52.0269C26.9447 54.1057 29.7446 55.4099 32.8567 55.4099C35.6772 55.4099 38.3821 54.3168 40.3765 52.3711L50 42.9823V38.6847C50 35.6485 48.6633 32.9169 46.5325 31.0196C48.6633 29.1223 50 26.3907 50 23.3545V19.0569L40.3765 9.66821C38.3821 7.72249 35.6772 6.62939 32.8567 6.62939C29.7446 6.62939 26.9447 7.93359 25 10.0123C23.0552 7.93359 20.2554 6.62939 17.1432 6.62939ZM32.1985 31.0196C32.0786 30.9129 31.961 30.8033 31.8457 30.6908L25 24.0121L18.1542 30.6908C18.039 30.8033 17.9214 30.9129 17.8015 31.0196C17.9214 31.1263 18.039 31.236 18.1542 31.3484L25 38.0272L31.8457 31.3484C31.961 31.236 32.0786 31.1263 32.1985 31.0196ZM27.7777 42.9823V45.0347C27.7777 47.7713 30.0517 49.9899 32.8567 49.9899C34.2037 49.9899 35.4956 49.4678 36.4481 48.5385L44.4445 40.7372V38.6847C44.4445 35.9482 42.1705 33.7296 39.3655 33.7296C38.0185 33.7296 36.7266 34.2517 35.7741 35.181L27.7777 42.9823ZM22.2222 42.9823L14.2259 35.181C13.2734 34.2517 11.9815 33.7296 10.6345 33.7296C7.82949 33.7296 5.55555 35.9482 5.55555 38.6847V40.7372L13.5519 48.5385C14.5044 49.4678 15.7962 49.9899 17.1432 49.9899C19.9482 49.9899 22.2222 47.7713 22.2222 45.0347V42.9823ZM22.2222 17.0045V19.0569L14.2259 26.8583C13.2734 27.7875 11.9815 28.3096 10.6345 28.3096C7.82949 28.3096 5.55555 26.0911 5.55555 23.3545V21.3021L13.5519 13.5008C14.5044 12.5715 15.7962 12.0495 17.1432 12.0495C19.9482 12.0495 22.2222 14.2679 22.2222 17.0045ZM35.7741 26.8583L27.7777 19.0569V17.0045C27.7777 14.2679 30.0517 12.0495 32.8567 12.0495C34.2037 12.0495 35.4956 12.5715 36.4481 13.5008L44.4445 21.3021V23.3545C44.4445 26.0911 42.1705 28.3096 39.3655 28.3096C38.0185 28.3096 36.7266 27.7875 35.7741 26.8583Z" fill="#2447F9"/>
</g>
<path d="M79.925 16.1C79.925 17.1167 79.6917 18.05 79.225 18.9C78.7583 19.7333 78.0417 20.4083 77.075 20.925C76.1083 21.4417 74.9083 21.7 73.475 21.7H70.825V28H66.55V10.45H73.475C74.875 10.45 76.0583 10.6917 77.025 11.175C77.9917 11.6583 78.7167 12.325 79.2 13.175C79.6833 14.025 79.925 15 79.925 16.1ZM73.15 18.3C73.9667 18.3 74.575 18.1083 74.975 17.725C75.375 17.3417 75.575 16.8 75.575 16.1C75.575 15.4 75.375 14.8583 74.975 14.475C74.575 14.0917 73.9667 13.9 73.15 13.9H70.825V18.3H73.15ZM84.3006 12.6C83.5506 12.6 82.9339 12.3833 82.4506 11.95C81.9839 11.5 81.7506 10.95 81.7506 10.3C81.7506 9.63333 81.9839 9.08333 82.4506 8.65C82.9339 8.2 83.5506 7.975 84.3006 7.975C85.0339 7.975 85.6339 8.2 86.1006 8.65C86.5839 9.08333 86.8256 9.63333 86.8256 10.3C86.8256 10.95 86.5839 11.5 86.1006 11.95C85.6339 12.3833 85.0339 12.6 84.3006 12.6ZM86.4256 14.05V28H82.1506V14.05H86.4256ZM98.0236 13.9C99.657 13.9 100.957 14.4333 101.924 15.5C102.907 16.55 103.399 18 103.399 19.85V28H99.1486V20.425C99.1486 19.4917 98.907 18.7667 98.4236 18.25C97.9403 17.7333 97.2903 17.475 96.4736 17.475C95.657 17.475 95.007 17.7333 94.5236 18.25C94.0403 18.7667 93.7986 19.4917 93.7986 20.425V28H89.5236V14.05H93.7986V15.9C94.232 15.2833 94.8153 14.8 95.5486 14.45C96.282 14.0833 97.107 13.9 98.0236 13.9ZM114.144 24.375V28H111.969C110.419 28 109.211 27.625 108.344 26.875C107.478 26.1083 107.044 24.8667 107.044 23.15V17.6H105.344V14.05H107.044V10.65H111.319V14.05H114.119V17.6H111.319V23.2C111.319 23.6167 111.419 23.9167 111.619 24.1C111.819 24.2833 112.153 24.375 112.619 24.375H114.144ZM130.301 14.05V28H126.026V26.1C125.592 26.7167 125.001 27.2167 124.251 27.6C123.517 27.9667 122.701 28.15 121.801 28.15C120.734 28.15 119.792 27.9167 118.976 27.45C118.159 26.9667 117.526 26.275 117.076 25.375C116.626 24.475 116.401 23.4167 116.401 22.2V14.05H120.651V21.625C120.651 22.5583 120.892 23.2833 121.376 23.8C121.859 24.3167 122.509 24.575 123.326 24.575C124.159 24.575 124.817 24.3167 125.301 23.8C125.784 23.2833 126.026 22.5583 126.026 21.625V14.05H130.301ZM143.996 19C145.013 19.2167 145.83 19.725 146.446 20.525C147.063 21.3083 147.371 22.2083 147.371 23.225C147.371 24.6917 146.855 25.8583 145.821 26.725C144.805 27.575 143.38 28 141.546 28H133.371V10.45H141.271C143.055 10.45 144.446 10.8583 145.446 11.675C146.463 12.4917 146.971 13.6 146.971 15C146.971 16.0333 146.696 16.8917 146.146 17.575C145.613 18.2583 144.896 18.7333 143.996 19ZM137.646 17.55H140.446C141.146 17.55 141.68 17.4 142.046 17.1C142.43 16.7833 142.621 16.325 142.621 15.725C142.621 15.125 142.43 14.6667 142.046 14.35C141.68 14.0333 141.146 13.875 140.446 13.875H137.646V17.55ZM140.796 24.55C141.513 24.55 142.063 24.3917 142.446 24.075C142.846 23.7417 143.046 23.2667 143.046 22.65C143.046 22.0333 142.838 21.55 142.421 21.2C142.021 20.85 141.463 20.675 140.746 20.675H137.646V24.55H140.796ZM163.001 20.8C163.001 21.2 162.976 21.6167 162.926 22.05H153.251C153.317 22.9167 153.592 23.5833 154.076 24.05C154.576 24.5 155.184 24.725 155.901 24.725C156.967 24.725 157.709 24.275 158.126 23.375H162.676C162.442 24.2917 162.017 25.1167 161.401 25.85C160.801 26.5833 160.042 27.1583 159.126 27.575C158.209 27.9917 157.184 28.2 156.051 28.2C154.684 28.2 153.467 27.9083 152.401 27.325C151.334 26.7417 150.501 25.9083 149.901 24.825C149.301 23.7417 149.001 22.475 149.001 21.025C149.001 19.575 149.292 18.3083 149.876 17.225C150.476 16.1417 151.309 15.3083 152.376 14.725C153.442 14.1417 154.667 13.85 156.051 13.85C157.401 13.85 158.601 14.1333 159.651 14.7C160.701 15.2667 161.517 16.075 162.101 17.125C162.701 18.175 163.001 19.4 163.001 20.8ZM158.626 19.675C158.626 18.9417 158.376 18.3583 157.876 17.925C157.376 17.4917 156.751 17.275 156.001 17.275C155.284 17.275 154.676 17.4833 154.176 17.9C153.692 18.3167 153.392 18.9083 153.276 19.675H158.626ZM164.406 21C164.406 19.5667 164.673 18.3083 165.206 17.225C165.756 16.1417 166.498 15.3083 167.431 14.725C168.364 14.1417 169.406 13.85 170.556 13.85C171.539 13.85 172.398 14.05 173.131 14.45C173.881 14.85 174.456 15.375 174.856 16.025V14.05H179.131V28H174.856V26.025C174.439 26.675 173.856 27.2 173.106 27.6C172.373 28 171.514 28.2 170.531 28.2C169.398 28.2 168.364 27.9083 167.431 27.325C166.498 26.725 165.756 25.8833 165.206 24.8C164.673 23.7 164.406 22.4333 164.406 21ZM174.856 21.025C174.856 19.9583 174.556 19.1167 173.956 18.5C173.373 17.8833 172.656 17.575 171.806 17.575C170.956 17.575 170.231 17.8833 169.631 18.5C169.048 19.1 168.756 19.9333 168.756 21C168.756 22.0667 169.048 22.9167 169.631 23.55C170.231 24.1667 170.956 24.475 171.806 24.475C172.656 24.475 173.373 24.1667 173.956 23.55C174.556 22.9333 174.856 22.0917 174.856 21.025ZM187.899 28.2C186.682 28.2 185.599 27.9917 184.649 27.575C183.699 27.1583 182.949 26.5917 182.399 25.875C181.849 25.1417 181.54 24.325 181.474 23.425H185.699C185.749 23.9083 185.974 24.3 186.374 24.6C186.774 24.9 187.265 25.05 187.849 25.05C188.382 25.05 188.79 24.95 189.074 24.75C189.374 24.5333 189.524 24.2583 189.524 23.925C189.524 23.525 189.315 23.2333 188.899 23.05C188.482 22.85 187.807 22.6333 186.874 22.4C185.874 22.1667 185.04 21.925 184.374 21.675C183.707 21.4083 183.132 21 182.649 20.45C182.165 19.8833 181.924 19.125 181.924 18.175C181.924 17.375 182.14 16.65 182.574 16C183.024 15.3333 183.674 14.8083 184.524 14.425C185.39 14.0417 186.415 13.85 187.599 13.85C189.349 13.85 190.724 14.2833 191.724 15.15C192.74 16.0167 193.324 17.1667 193.474 18.6H189.524C189.457 18.1167 189.24 17.7333 188.874 17.45C188.524 17.1667 188.057 17.025 187.474 17.025C186.974 17.025 186.59 17.125 186.324 17.325C186.057 17.5083 185.924 17.7667 185.924 18.1C185.924 18.5 186.132 18.8 186.549 19C186.982 19.2 187.649 19.4 188.549 19.6C189.582 19.8667 190.424 20.1333 191.074 20.4C191.724 20.65 192.29 21.0667 192.774 21.65C193.274 22.2167 193.532 22.9833 193.549 23.95C193.549 24.7667 193.315 25.5 192.849 26.15C192.399 26.7833 191.74 27.2833 190.874 27.65C190.024 28.0167 189.032 28.2 187.899 28.2ZM198.314 12.6C197.564 12.6 196.948 12.3833 196.464 11.95C195.998 11.5 195.764 10.95 195.764 10.3C195.764 9.63333 195.998 9.08333 196.464 8.65C196.948 8.2 197.564 7.975 198.314 7.975C199.048 7.975 199.648 8.2 200.114 8.65C200.598 9.08333 200.839 9.63333 200.839 10.3C200.839 10.95 200.598 11.5 200.114 11.95C199.648 12.3833 199.048 12.6 198.314 12.6ZM200.439 14.05V28H196.164V14.05H200.439ZM209.212 28.2C207.996 28.2 206.912 27.9917 205.962 27.575C205.012 27.1583 204.262 26.5917 203.712 25.875C203.162 25.1417 202.854 24.325 202.787 23.425H207.012C207.062 23.9083 207.287 24.3 207.687 24.6C208.087 24.9 208.579 25.05 209.162 25.05C209.696 25.05 210.104 24.95 210.387 24.75C210.687 24.5333 210.837 24.2583 210.837 23.925C210.837 23.525 210.629 23.2333 210.212 23.05C209.796 22.85 209.121 22.6333 208.187 22.4C207.187 22.1667 206.354 21.925 205.687 21.675C205.021 21.4083 204.446 21 203.962 20.45C203.479 19.8833 203.237 19.125 203.237 18.175C203.237 17.375 203.454 16.65 203.887 16C204.337 15.3333 204.987 14.8083 205.837 14.425C206.704 14.0417 207.729 13.85 208.912 13.85C210.662 13.85 212.037 14.2833 213.037 15.15C214.054 16.0167 214.637 17.1667 214.787 18.6H210.837C210.771 18.1167 210.554 17.7333 210.187 17.45C209.837 17.1667 209.371 17.025 208.787 17.025C208.287 17.025 207.904 17.125 207.637 17.325C207.371 17.5083 207.237 17.7667 207.237 18.1C207.237 18.5 207.446 18.8 207.862 19C208.296 19.2 208.962 19.4 209.862 19.6C210.896 19.8667 211.737 20.1333 212.387 20.4C213.037 20.65 213.604 21.0667 214.087 21.65C214.587 22.2167 214.846 22.9833 214.862 23.95C214.862 24.7667 214.629 25.5 214.162 26.15C213.712 26.7833 213.054 27.2833 212.187 27.65C211.337 28.0167 210.346 28.2 209.212 28.2ZM237.503 14.05L233.728 28H229.003L226.803 18.95L224.528 28H219.828L216.028 14.05H220.303L222.278 24.025L224.628 14.05H229.153L231.528 23.975L233.478 14.05H237.503ZM238.283 21C238.283 19.5667 238.55 18.3083 239.083 17.225C239.633 16.1417 240.375 15.3083 241.308 14.725C242.241 14.1417 243.283 13.85 244.433 13.85C245.416 13.85 246.275 14.05 247.008 14.45C247.758 14.85 248.333 15.375 248.733 16.025V14.05H253.008V28H248.733V26.025C248.316 26.675 247.733 27.2 246.983 27.6C246.25 28 245.391 28.2 244.408 28.2C243.275 28.2 242.241 27.9083 241.308 27.325C240.375 26.725 239.633 25.8833 239.083 24.8C238.55 23.7 238.283 22.4333 238.283 21ZM248.733 21.025C248.733 19.9583 248.433 19.1167 247.833 18.5C247.25 17.8833 246.533 17.575 245.683 17.575C244.833 17.575 244.108 17.8833 243.508 18.5C242.925 19.1 242.633 19.9333 242.633 21C242.633 22.0667 242.925 22.9167 243.508 23.55C244.108 24.1667 244.833 24.475 245.683 24.475C246.533 24.475 247.25 24.1667 247.833 23.55C248.433 22.9333 248.733 22.0917 248.733 21.025Z" fill="black"/>
<path d="M70.364 46.716C70.812 46.796 71.192 47.032 71.504 47.424C71.816 47.816 71.972 48.26 71.972 48.756C71.972 49.18 71.86 49.564 71.636 49.908C71.42 50.244 71.104 50.512 70.688 50.712C70.272 50.904 69.788 51 69.236 51H65.9V42.66H69.08C69.648 42.66 70.136 42.756 70.544 42.948C70.952 43.14 71.26 43.4 71.468 43.728C71.676 44.048 71.78 44.408 71.78 44.808C71.78 45.288 71.652 45.688 71.396 46.008C71.14 46.328 70.796 46.564 70.364 46.716ZM67.268 46.164H68.96C69.408 46.164 69.756 46.064 70.004 45.864C70.26 45.656 70.388 45.36 70.388 44.976C70.388 44.6 70.26 44.308 70.004 44.1C69.756 43.884 69.408 43.776 68.96 43.776H67.268V46.164ZM69.116 49.884C69.58 49.884 69.944 49.772 70.208 49.548C70.472 49.324 70.604 49.012 70.604 48.612C70.604 48.204 70.464 47.88 70.184 47.64C69.904 47.4 69.532 47.28 69.068 47.28H67.268V49.884H69.116ZM79.4466 44.388V51H78.0786V50.22C77.8626 50.492 77.5786 50.708 77.2266 50.868C76.8826 51.02 76.5146 51.096 76.1226 51.096C75.6026 51.096 75.1346 50.988 74.7186 50.772C74.3106 50.556 73.9866 50.236 73.7466 49.812C73.5146 49.388 73.3986 48.876 73.3986 48.276V44.388H74.7546V48.072C74.7546 48.664 74.9026 49.12 75.1986 49.44C75.4946 49.752 75.8986 49.908 76.4106 49.908C76.9226 49.908 77.3266 49.752 77.6226 49.44C77.9266 49.12 78.0786 48.664 78.0786 48.072V44.388H79.4466ZM83.8676 47.7L86.9156 51H85.0676L82.6196 48.156V51H81.2516V42.12H82.6196V47.28L85.0196 44.388H86.9156L83.8676 47.7ZM87.4401 47.664C87.4401 47 87.5761 46.412 87.8481 45.9C88.1281 45.388 88.5041 44.992 88.9761 44.712C89.4561 44.424 89.9841 44.28 90.5601 44.28C91.0801 44.28 91.5321 44.384 91.9161 44.592C92.3081 44.792 92.6201 45.044 92.8521 45.348V44.388H94.2321V51H92.8521V50.016C92.6201 50.328 92.3041 50.588 91.9041 50.796C91.5041 51.004 91.0481 51.108 90.5361 51.108C89.9681 51.108 89.4481 50.964 88.9761 50.676C88.5041 50.38 88.1281 49.972 87.8481 49.452C87.5761 48.924 87.4401 48.328 87.4401 47.664ZM92.8521 47.688C92.8521 47.232 92.7561 46.836 92.5641 46.5C92.3801 46.164 92.1361 45.908 91.8321 45.732C91.5281 45.556 91.2001 45.468 90.8481 45.468C90.4961 45.468 90.1681 45.556 89.8641 45.732C89.5601 45.9 89.3121 46.152 89.1201 46.488C88.9361 46.816 88.8441 47.208 88.8441 47.664C88.8441 48.12 88.9361 48.52 89.1201 48.864C89.3121 49.208 89.5601 49.472 89.8641 49.656C90.1761 49.832 90.5041 49.92 90.8481 49.92C91.2001 49.92 91.5281 49.832 91.8321 49.656C92.1361 49.48 92.3801 49.224 92.5641 48.888C92.7561 48.544 92.8521 48.144 92.8521 47.688ZM104.978 45.144C104.978 45.568 104.878 45.968 104.678 46.344C104.478 46.72 104.158 47.028 103.718 47.268C103.278 47.5 102.714 47.616 102.026 47.616H100.514V51H99.1461V42.66H102.026C102.666 42.66 103.206 42.772 103.646 42.996C104.094 43.212 104.426 43.508 104.642 43.884C104.866 44.26 104.978 44.68 104.978 45.144ZM102.026 46.5C102.546 46.5 102.934 46.384 103.19 46.152C103.446 45.912 103.574 45.576 103.574 45.144C103.574 44.232 103.058 43.776 102.026 43.776H100.514V46.5H102.026ZM112.343 47.532C112.343 47.78 112.327 48.004 112.295 48.204H107.243C107.283 48.732 107.479 49.156 107.831 49.476C108.183 49.796 108.615 49.956 109.127 49.956C109.863 49.956 110.383 49.648 110.687 49.032H112.163C111.963 49.64 111.599 50.14 111.071 50.532C110.551 50.916 109.903 51.108 109.127 51.108C108.495 51.108 107.927 50.968 107.423 50.688C106.927 50.4 106.535 50 106.247 49.488C105.967 48.968 105.827 48.368 105.827 47.688C105.827 47.008 105.963 46.412 106.235 45.9C106.515 45.38 106.903 44.98 107.399 44.7C107.903 44.42 108.479 44.28 109.127 44.28C109.751 44.28 110.307 44.416 110.795 44.688C111.283 44.96 111.663 45.344 111.935 45.84C112.207 46.328 112.343 46.892 112.343 47.532ZM110.915 47.1C110.907 46.596 110.727 46.192 110.375 45.888C110.023 45.584 109.587 45.432 109.067 45.432C108.595 45.432 108.191 45.584 107.855 45.888C107.519 46.184 107.319 46.588 107.255 47.1H110.915ZM115.057 42.12V51H113.689V42.12H115.057ZM122.841 44.388V51H121.473V50.22C121.257 50.492 120.973 50.708 120.621 50.868C120.277 51.02 119.909 51.096 119.517 51.096C118.997 51.096 118.529 50.988 118.113 50.772C117.705 50.556 117.381 50.236 117.141 49.812C116.909 49.388 116.793 48.876 116.793 48.276V44.388H118.149V48.072C118.149 48.664 118.297 49.12 118.593 49.44C118.889 49.752 119.293 49.908 119.805 49.908C120.317 49.908 120.721 49.752 121.017 49.44C121.321 49.12 121.473 48.664 121.473 48.072V44.388H122.841ZM124.19 47.664C124.19 47 124.326 46.412 124.598 45.9C124.878 45.388 125.254 44.992 125.726 44.712C126.206 44.424 126.734 44.28 127.31 44.28C127.83 44.28 128.282 44.384 128.666 44.592C129.058 44.792 129.37 45.044 129.602 45.348V44.388H130.982V51H129.602V50.016C129.37 50.328 129.054 50.588 128.654 50.796C128.254 51.004 127.798 51.108 127.286 51.108C126.718 51.108 126.198 50.964 125.726 50.676C125.254 50.38 124.878 49.972 124.598 49.452C124.326 48.924 124.19 48.328 124.19 47.664ZM129.602 47.688C129.602 47.232 129.506 46.836 129.314 46.5C129.13 46.164 128.886 45.908 128.582 45.732C128.278 45.556 127.95 45.468 127.598 45.468C127.246 45.468 126.918 45.556 126.614 45.732C126.31 45.9 126.062 46.152 125.87 46.488C125.686 46.816 125.594 47.208 125.594 47.664C125.594 48.12 125.686 48.52 125.87 48.864C126.062 49.208 126.31 49.472 126.614 49.656C126.926 49.832 127.254 49.92 127.598 49.92C127.95 49.92 128.278 49.832 128.582 49.656C128.886 49.48 129.13 49.224 129.314 48.888C129.506 48.544 129.602 48.144 129.602 47.688ZM136.115 44.28C136.635 44.28 137.099 44.388 137.507 44.604C137.923 44.82 138.247 45.14 138.479 45.564C138.711 45.988 138.827 46.5 138.827 47.1V51H137.471V47.304C137.471 46.712 137.323 46.26 137.027 45.948C136.731 45.628 136.327 45.468 135.815 45.468C135.303 45.468 134.895 45.628 134.591 45.948C134.295 46.26 134.147 46.712 134.147 47.304V51H132.779V44.388H134.147V45.144C134.371 44.872 134.655 44.66 134.999 44.508C135.351 44.356 135.723 44.28 136.115 44.28ZM143.236 44.28C143.748 44.28 144.2 44.384 144.592 44.592C144.992 44.792 145.304 45.044 145.528 45.348V44.388H146.908V51.108C146.908 51.716 146.78 52.256 146.524 52.728C146.268 53.208 145.896 53.584 145.408 53.856C144.928 54.128 144.352 54.264 143.68 54.264C142.784 54.264 142.04 54.052 141.448 53.628C140.856 53.212 140.52 52.644 140.44 51.924H141.796C141.9 52.268 142.12 52.544 142.456 52.752C142.8 52.968 143.208 53.076 143.68 53.076C144.232 53.076 144.676 52.908 145.012 52.572C145.356 52.236 145.528 51.748 145.528 51.108V50.004C145.296 50.316 144.98 50.58 144.58 50.796C144.188 51.004 143.74 51.108 143.236 51.108C142.66 51.108 142.132 50.964 141.652 50.676C141.18 50.38 140.804 49.972 140.524 49.452C140.252 48.924 140.116 48.328 140.116 47.664C140.116 47 140.252 46.412 140.524 45.9C140.804 45.388 141.18 44.992 141.652 44.712C142.132 44.424 142.66 44.28 143.236 44.28ZM145.528 47.688C145.528 47.232 145.432 46.836 145.24 46.5C145.056 46.164 144.812 45.908 144.508 45.732C144.204 45.556 143.876 45.468 143.524 45.468C143.172 45.468 142.844 45.556 142.54 45.732C142.236 45.9 141.988 46.152 141.796 46.488C141.612 46.816 141.52 47.208 141.52 47.664C141.52 48.12 141.612 48.52 141.796 48.864C141.988 49.208 142.236 49.472 142.54 49.656C142.852 49.832 143.18 49.92 143.524 49.92C143.876 49.92 144.204 49.832 144.508 49.656C144.812 49.48 145.056 49.224 145.24 48.888C145.432 48.544 145.528 48.144 145.528 47.688ZM150.205 49.356L148.753 52.668H147.865L148.717 49.356H150.205ZM165.377 42.66L162.905 51H161.357L159.605 44.688L157.745 51L156.209 51.012L153.845 42.66H155.297L157.025 49.452L158.897 42.66H160.433L162.173 49.416L163.913 42.66H165.377ZM172.493 44.388V51H171.125V50.22C170.909 50.492 170.625 50.708 170.273 50.868C169.929 51.02 169.561 51.096 169.169 51.096C168.649 51.096 168.181 50.988 167.765 50.772C167.357 50.556 167.033 50.236 166.793 49.812C166.561 49.388 166.445 48.876 166.445 48.276V44.388H167.801V48.072C167.801 48.664 167.949 49.12 168.245 49.44C168.541 49.752 168.945 49.908 169.457 49.908C169.969 49.908 170.373 49.752 170.669 49.44C170.973 49.12 171.125 48.664 171.125 48.072V44.388H172.493ZM174.994 43.512C174.746 43.512 174.538 43.428 174.37 43.26C174.202 43.092 174.118 42.884 174.118 42.636C174.118 42.388 174.202 42.18 174.37 42.012C174.538 41.844 174.746 41.76 174.994 41.76C175.234 41.76 175.438 41.844 175.606 42.012C175.774 42.18 175.858 42.388 175.858 42.636C175.858 42.884 175.774 43.092 175.606 43.26C175.438 43.428 175.234 43.512 174.994 43.512ZM175.666 52.296C175.666 52.944 175.502 53.412 175.174 53.7C174.854 53.996 174.386 54.144 173.77 54.144H173.062V52.992H173.53C173.81 52.992 174.006 52.936 174.118 52.824C174.238 52.72 174.298 52.544 174.298 52.296V44.388H175.666V52.296ZM183.451 44.388V51H182.083V50.22C181.867 50.492 181.583 50.708 181.231 50.868C180.887 51.02 180.519 51.096 180.127 51.096C179.607 51.096 179.139 50.988 178.723 50.772C178.315 50.556 177.991 50.236 177.751 49.812C177.519 49.388 177.403 48.876 177.403 48.276V44.388H178.759V48.072C178.759 48.664 178.907 49.12 179.203 49.44C179.499 49.752 179.903 49.908 180.415 49.908C180.927 49.908 181.331 49.752 181.627 49.44C181.931 49.12 182.083 48.664 182.083 48.072V44.388H183.451ZM184.799 47.664C184.799 47 184.935 46.412 185.207 45.9C185.487 45.388 185.863 44.992 186.335 44.712C186.815 44.424 187.347 44.28 187.931 44.28C188.363 44.28 188.787 44.376 189.203 44.568C189.627 44.752 189.963 45 190.211 45.312V42.12H191.591V51H190.211V50.004C189.987 50.324 189.675 50.588 189.275 50.796C188.883 51.004 188.431 51.108 187.919 51.108C187.343 51.108 186.815 50.964 186.335 50.676C185.863 50.38 185.487 49.972 185.207 49.452C184.935 48.924 184.799 48.328 184.799 47.664ZM190.211 47.688C190.211 47.232 190.115 46.836 189.923 46.5C189.739 46.164 189.495 45.908 189.191 45.732C188.887 45.556 188.559 45.468 188.207 45.468C187.855 45.468 187.527 45.556 187.223 45.732C186.919 45.9 186.671 46.152 186.479 46.488C186.295 46.816 186.203 47.208 186.203 47.664C186.203 48.12 186.295 48.52 186.479 48.864C186.671 49.208 186.919 49.472 187.223 49.656C187.535 49.832 187.863 49.92 188.207 49.92C188.559 49.92 188.887 49.832 189.191 49.656C189.495 49.48 189.739 49.224 189.923 48.888C190.115 48.544 190.211 48.144 190.211 47.688ZM196.004 47.7L199.052 51H197.204L194.756 48.156V51H193.388V42.12H194.756V47.28L197.156 44.388H199.052L196.004 47.7ZM199.577 47.664C199.577 47 199.713 46.412 199.985 45.9C200.265 45.388 200.641 44.992 201.113 44.712C201.593 44.424 202.121 44.28 202.697 44.28C203.217 44.28 203.669 44.384 204.053 44.592C204.445 44.792 204.757 45.044 204.989 45.348V44.388H206.369V51H204.989V50.016C204.757 50.328 204.441 50.588 204.041 50.796C203.641 51.004 203.185 51.108 202.673 51.108C202.105 51.108 201.585 50.964 201.113 50.676C200.641 50.38 200.265 49.972 199.985 49.452C199.713 48.924 199.577 48.328 199.577 47.664ZM204.989 47.688C204.989 47.232 204.893 46.836 204.701 46.5C204.517 46.164 204.273 45.908 203.969 45.732C203.665 45.556 203.337 45.468 202.985 45.468C202.633 45.468 202.305 45.556 202.001 45.732C201.697 45.9 201.449 46.152 201.257 46.488C201.073 46.816 200.981 47.208 200.981 47.664C200.981 48.12 201.073 48.52 201.257 48.864C201.449 49.208 201.697 49.472 202.001 49.656C202.313 49.832 202.641 49.92 202.985 49.92C203.337 49.92 203.665 49.832 203.969 49.656C204.273 49.48 204.517 49.224 204.701 48.888C204.893 48.544 204.989 48.144 204.989 47.688ZM211.502 44.28C212.022 44.28 212.486 44.388 212.894 44.604C213.31 44.82 213.634 45.14 213.866 45.564C214.098 45.988 214.214 46.5 214.214 47.1V51H212.858V47.304C212.858 46.712 212.71 46.26 212.414 45.948C212.118 45.628 211.714 45.468 211.202 45.468C210.69 45.468 210.282 45.628 209.978 45.948C209.682 46.26 209.534 46.712 209.534 47.304V51H208.166V44.388H209.534V45.144C209.758 44.872 210.042 44.66 210.386 44.508C210.738 44.356 211.11 44.28 211.502 44.28ZM220.444 42.66V51H219.076V42.66H220.444ZM230.244 44.28C230.764 44.28 231.228 44.388 231.636 44.604C232.052 44.82 232.376 45.14 232.608 45.564C232.848 45.988 232.968 46.5 232.968 47.1V51H231.612V47.304C231.612 46.712 231.464 46.26 231.168 45.948C230.872 45.628 230.468 45.468 229.956 45.468C229.444 45.468 229.036 45.628 228.732 45.948C228.436 46.26 228.288 46.712 228.288 47.304V51H226.932V47.304C226.932 46.712 226.784 46.26 226.488 45.948C226.192 45.628 225.788 45.468 225.276 45.468C224.764 45.468 224.356 45.628 224.052 45.948C223.756 46.26 223.608 46.712 223.608 47.304V51H222.24V44.388H223.608V45.144C223.832 44.872 224.116 44.66 224.46 44.508C224.804 44.356 225.172 44.28 225.564 44.28C226.092 44.28 226.564 44.392 226.98 44.616C227.396 44.84 227.716 45.164 227.94 45.588C228.14 45.188 228.452 44.872 228.876 44.64C229.3 44.4 229.756 44.28 230.244 44.28ZM236.077 45.36C236.309 45.056 236.625 44.8 237.025 44.592C237.425 44.384 237.877 44.28 238.381 44.28C238.957 44.28 239.481 44.424 239.953 44.712C240.433 44.992 240.809 45.388 241.081 45.9C241.353 46.412 241.489 47 241.489 47.664C241.489 48.328 241.353 48.924 241.081 49.452C240.809 49.972 240.433 50.38 239.953 50.676C239.481 50.964 238.957 51.108 238.381 51.108C237.877 51.108 237.429 51.008 237.037 50.808C236.645 50.6 236.325 50.344 236.077 50.04V54.144H234.709V44.388H236.077V45.36ZM240.097 47.664C240.097 47.208 240.001 46.816 239.809 46.488C239.625 46.152 239.377 45.9 239.065 45.732C238.761 45.556 238.433 45.468 238.081 45.468C237.737 45.468 237.409 45.556 237.097 45.732C236.793 45.908 236.545 46.164 236.353 46.5C236.169 46.836 236.077 47.232 236.077 47.688C236.077 48.144 236.169 48.544 236.353 48.888C236.545 49.224 236.793 49.48 237.097 49.656C237.409 49.832 237.737 49.92 238.081 49.92C238.433 49.92 238.761 49.832 239.065 49.656C239.377 49.472 239.625 49.208 239.809 48.864C240.001 48.52 240.097 48.12 240.097 47.664ZM243.537 43.512C243.289 43.512 243.081 43.428 242.913 43.26C242.745 43.092 242.661 42.884 242.661 42.636C242.661 42.388 242.745 42.18 242.913 42.012C243.081 41.844 243.289 41.76 243.537 41.76C243.777 41.76 243.981 41.844 244.149 42.012C244.317 42.18 244.401 42.388 244.401 42.636C244.401 42.884 244.317 43.092 244.149 43.26C243.981 43.428 243.777 43.512 243.537 43.512ZM244.209 44.388V51H242.841V44.388H244.209ZM245.549 47.664C245.549 47 245.685 46.412 245.957 45.9C246.237 45.388 246.613 44.992 247.085 44.712C247.565 44.424 248.093 44.28 248.669 44.28C249.189 44.28 249.641 44.384 250.025 44.592C250.417 44.792 250.729 45.044 250.961 45.348V44.388H252.341V51H250.961V50.016C250.729 50.328 250.413 50.588 250.013 50.796C249.613 51.004 249.157 51.108 248.645 51.108C248.077 51.108 247.557 50.964 247.085 50.676C246.613 50.38 246.237 49.972 245.957 49.452C245.685 48.924 245.549 48.328 245.549 47.664ZM250.961 47.688C250.961 47.232 250.865 46.836 250.673 46.5C250.489 46.164 250.245 45.908 249.941 45.732C249.637 45.556 249.309 45.468 248.957 45.468C248.605 45.468 248.277 45.556 247.973 45.732C247.669 45.9 247.421 46.152 247.229 46.488C247.045 46.816 246.953 47.208 246.953 47.664C246.953 48.12 247.045 48.52 247.229 48.864C247.421 49.208 247.669 49.472 247.973 49.656C248.285 49.832 248.613 49.92 248.957 49.92C249.309 49.92 249.637 49.832 249.941 49.656C250.245 49.48 250.489 49.224 250.673 48.888C250.865 48.544 250.961 48.144 250.961 47.688ZM257.474 44.28C257.994 44.28 258.458 44.388 258.866 44.604C259.282 44.82 259.606 45.14 259.838 45.564C260.07 45.988 260.186 46.5 260.186 47.1V51H258.83V47.304C258.83 46.712 258.682 46.26 258.386 45.948C258.09 45.628 257.686 45.468 257.174 45.468C256.662 45.468 256.254 45.628 255.95 45.948C255.654 46.26 255.506 46.712 255.506 47.304V51H254.138V44.388H255.506V45.144C255.73 44.872 256.014 44.66 256.358 44.508C256.71 44.356 257.082 44.28 257.474 44.28Z" fill="black"/>
<defs>
<clipPath id="clip0_6_136">
<rect width="50" height="50" fill="white" transform="translate(0 6)"/>
</clipPath>
</defs>
</svg>
