<svg width="144" height="144" viewBox="0 0 144 144" fill="none" xmlns="http://www.w3.org/2000/svg">
<g filter="url(#filter0_d_20_145)">
<path opacity="0.4" d="M114 54C114 62.7 111.42 70.6801 106.98 77.3401C100.5 86.9401 90.24 93.72 78.3 95.46C76.26 95.82 74.16 96 72 96C69.84 96 67.74 95.82 65.7 95.46C53.76 93.72 43.5 86.9401 37.02 77.3401C32.58 70.6801 30 62.7 30 54C30 30.78 48.78 12 72 12C95.22 12 114 30.78 114 54Z" fill="#2447F9"/>
<path d="M127.5 110.82L117.6 113.16C115.38 113.7 113.64 115.38 113.16 117.6L111.06 126.42C109.92 131.22 103.8 132.66 100.62 128.88L72 96L43.38 128.94C40.2 132.72 34.08 131.28 32.94 126.48L30.84 117.66C30.3 115.44 28.56 113.7 26.4 113.22L16.5 110.88C11.94 109.8 10.32 104.1 13.62 100.8L37.02 77.4C43.5 87 53.76 93.7801 65.7 95.5201C67.74 95.8801 69.84 96.0601 72 96.0601C74.16 96.0601 76.26 95.8801 78.3 95.5201C90.24 93.7801 100.5 87 106.98 77.4L130.38 100.8C133.68 104.04 132.06 109.74 127.5 110.82Z" fill="#2447F9"/>
<path d="M75.4801 35.88L79.0201 42.96C79.5001 43.92 80.7601 44.88 81.9001 45.06L88.3201 46.1399C92.4001 46.7999 93.3601 49.8 90.4201 52.74L85.4401 57.7199C84.6001 58.5599 84.1201 60.18 84.4201 61.38L85.8601 67.56C87.0001 72.42 84.4201 74.3399 80.1001 71.7599L74.1001 68.2199C73.0201 67.5599 71.2201 67.5599 70.1401 68.2199L64.1401 71.7599C59.8201 74.2799 57.2401 72.42 58.3801 67.56L59.8201 61.38C60.0601 60.24 59.6401 58.5599 58.8001 57.7199L53.8201 52.74C50.8801 49.8 51.8401 46.8599 55.9201 46.1399L62.3401 45.06C63.4201 44.88 64.6801 43.92 65.1601 42.96L68.7001 35.88C70.4401 32.04 73.5601 32.04 75.4801 35.88Z" fill="#2447F9"/>
</g>
<defs>
<filter id="filter0_d_20_145" x="-4" y="0" width="152" height="152" filterUnits="userSpaceOnUse" color-interpolation-filters="sRGB">
<feFlood flood-opacity="0" result="BackgroundImageFix"/>
<feColorMatrix in="SourceAlpha" type="matrix" values="0 0 0 0 0 0 0 0 0 0 0 0 0 0 0 0 0 0 127 0" result="hardAlpha"/>
<feOffset dy="4"/>
<feGaussianBlur stdDeviation="2"/>
<feComposite in2="hardAlpha" operator="out"/>
<feColorMatrix type="matrix" values="0 0 0 0 0 0 0 0 0 0 0 0 0 0 0 0 0 0 0.25 0"/>
<feBlend mode="normal" in2="BackgroundImageFix" result="effect1_dropShadow_20_145"/>
<feBlend mode="normal" in="SourceGraphic" in2="effect1_dropShadow_20_145" result="shape"/>
</filter>
</defs>
</svg>
