<svg width="102" height="102" viewBox="0 0 102 102" fill="none" xmlns="http://www.w3.org/2000/svg">
<path opacity="0.4" d="M92.055 44.37L87.89 62.135C84.32 77.4775 77.265 83.6825 64.005 82.4075C61.88 82.2375 59.585 81.855 57.12 81.26L49.98 79.56C32.2575 75.3525 26.775 66.5975 30.94 48.8325L35.105 31.025C35.955 27.4125 36.975 24.2675 38.25 21.675C43.2225 11.39 51.68 8.62747 65.875 11.985L72.9725 13.6425C90.78 17.8075 96.22 26.605 92.055 44.37Z" fill="#2447F9"/>
<path d="M64.005 82.4075C61.37 84.1925 58.055 85.68 54.0175 86.9975L47.3025 89.2075C30.43 94.6475 21.5475 90.1 16.065 73.2275L10.625 56.44C5.18499 39.5675 9.68998 30.6425 26.5625 25.2025L33.2775 22.9925C35.02 22.44 36.6775 21.9725 38.25 21.675C36.975 24.2675 35.955 27.4125 35.105 31.025L30.94 48.8325C26.775 66.5975 32.2575 75.3525 49.98 79.56L57.12 81.26C59.585 81.855 61.88 82.2375 64.005 82.4075Z" fill="#2447F9"/>
<path d="M74.3326 44.6675C74.0776 44.6675 73.8226 44.625 73.5251 44.5825L52.9126 39.355C51.2126 38.93 50.1926 37.1875 50.6176 35.4875C51.0426 33.7875 52.7851 32.7675 54.4851 33.1925L75.0976 38.42C76.7976 38.845 77.8176 40.5875 77.3926 42.2875C77.0526 43.69 75.7351 44.6675 74.3326 44.6675Z" fill="#2447F9"/>
<path d="M61.8801 59.0325C61.6251 59.0325 61.3701 58.99 61.0726 58.9475L48.7051 55.8025C47.0051 55.3775 45.9851 53.635 46.4101 51.935C46.8351 50.235 48.5776 49.215 50.2776 49.64L62.6451 52.785C64.3451 53.21 65.3651 54.9525 64.9401 56.6525C64.6001 58.0975 63.3251 59.0325 61.8801 59.0325Z" fill="#2447F9"/>
</svg>
