<svg width="63" height="63" viewBox="0 0 63 63" fill="none" xmlns="http://www.w3.org/2000/svg">
<path opacity="0.4" d="M31.5 5.25C24.6225 5.25 19.0312 10.8413 19.0312 17.7188C19.0312 24.465 24.3075 29.925 31.185 30.1612C31.395 30.135 31.605 30.135 31.7625 30.1612C31.815 30.1612 31.8412 30.1612 31.8937 30.1612C31.92 30.1612 31.92 30.1612 31.9463 30.1612C38.6663 29.925 43.9425 24.465 43.9688 17.7188C43.9688 10.8413 38.3775 5.25 31.5 5.25Z" fill="#2447F9"/>
<path d="M44.835 37.1437C37.5113 32.2612 25.5675 32.2612 18.1913 37.1437C14.8575 39.375 13.02 42.3937 13.02 45.6225C13.02 48.8512 14.8575 51.8437 18.165 54.0487C21.84 56.5162 26.67 57.75 31.5 57.75C36.33 57.75 41.16 56.5162 44.835 54.0487C48.1425 51.8175 49.98 48.825 49.98 45.57C49.9538 42.3413 48.1425 39.3487 44.835 37.1437Z" fill="#2447F9"/>
</svg>
