<svg width="87" height="87" viewBox="0 0 87 87" fill="none" xmlns="http://www.w3.org/2000/svg">
<path opacity="0.4" d="M61.625 74.3125H25.375C14.5 74.3125 7.25 68.875 7.25 56.1875V30.8125C7.25 18.125 14.5 12.6875 25.375 12.6875H61.625C72.5 12.6875 79.75 18.125 79.75 30.8125V56.1875C79.75 68.875 72.5 74.3125 61.625 74.3125Z" fill="#2447F9"/>
<path d="M43.5 46.6537C40.455 46.6537 37.3738 45.7113 35.0176 43.79L23.6713 34.7275C22.5113 33.785 22.2938 32.0813 23.2363 30.9213C24.1788 29.7613 25.8826 29.5438 27.0426 30.4863L38.3888 39.5488C41.1438 41.76 45.82 41.76 48.575 39.5488L59.9213 30.4863C61.0813 29.5438 62.8213 29.725 63.7276 30.9213C64.6701 32.0813 64.4888 33.8213 63.2926 34.7275L51.9463 43.79C49.6263 45.7113 46.545 46.6537 43.5 46.6537Z" fill="#2447F9"/>
</svg>
