<svg width="119" height="119" viewBox="0 0 119 119" fill="none" xmlns="http://www.w3.org/2000/svg">
<path opacity="0.4" d="M91.1341 63.665V88.1096C91.1341 94.4066 86.2253 101.15 80.3249 103.133L64.5078 108.389C61.7311 109.331 57.2191 109.331 54.492 108.389L38.6749 103.133C32.7249 101.15 27.8657 94.4066 27.8657 88.1096L27.9153 63.665L49.8311 77.945C55.1861 81.4654 64.012 81.4654 69.367 77.945L91.1341 63.665Z" fill="#2447F9"/>
<path d="M99.0675 32.0309L69.3671 12.5446C64.0121 9.02419 55.1863 9.02419 49.8313 12.5446L19.9821 32.0309C10.4125 38.2288 10.4125 52.2609 19.9821 58.5084L27.9155 63.665L49.8313 77.945C55.1863 81.4654 64.0121 81.4654 69.3671 77.945L91.1342 63.665L97.9271 59.2025V74.375C97.9271 76.4079 99.613 78.0938 101.646 78.0938C103.679 78.0938 105.365 76.4079 105.365 74.375V49.98C107.348 43.5838 105.315 36.1463 99.0675 32.0309Z" fill="#2447F9"/>
</svg>
